<svg xmlns="http://www.w3.org/2000/svg" xmlns:svg="http://www.w3.org/2000/svg" id="svg8" width="24" height="24" fill="none" stroke="currentColor" stroke-linecap="round" stroke-linejoin="round" stroke-width="2" version="1.1" viewBox="0 0 24 24"><path style="color:#000;fill:#fff;stroke-width:0;stroke-miterlimit:4;stroke-dasharray:none" id="path2" d="M 10,1 A 1,1 0 0 0 9,2 V 9.7636719 L 3.8261719,20.101562 C 3.174232,21.398629 4.1748637,23.010141 5.6269531,23 H 18.373047 c 1.452089,0.01014 2.452721,-1.601371 1.800781,-2.898438 v -0.002 L 15,9.7636719 V 2 A 1,1 0 0 0 14,1 1,1 0 0 0 13,2 v 8 a 1.0001,1.0001 0 0 0 0.105469,0.447266 l 5.28125,10.550781 a 1.0001,1.0001 0 0 0 0,0.002 1.0001,1.0001 0 0 0 -0.0059,0 H 5.6191406 a 1.0001,1.0001 0 0 0 -0.00586,0 1.0001,1.0001 0 0 0 0,-0.002 L 10.894531,10.447266 A 1.0001,1.0001 0 0 0 11,10 V 2 A 1,1 0 0 0 10,1 Z"/><path style="color:#000;fill:#fff;stroke-width:0;stroke-miterlimit:4;stroke-dasharray:none" id="path4" d="m 8.5,1 a 1,1 0 0 0 -1,1 1,1 0 0 0 1,1 h 7 a 1,1 0 0 0 1,-1 1,1 0 0 0 -1,-1 z"/><path style="color:#000;fill:#fff;stroke-width:0;stroke-miterlimit:4;stroke-dasharray:none" id="path6" d="m 7,15 a 1,1 0 0 0 -1,1 1,1 0 0 0 1,1 h 10 a 1,1 0 0 0 1,-1 1,1 0 0 0 -1,-1 z"/></svg>